<svg width="710" height="450" viewBox="0 0 710 450" fill="none" xmlns="http://www.w3.org/2000/svg">
<rect width="710" height="450" fill="#040429"/>
<ellipse cx="237.852" cy="31.2805" rx="2.85243" ry="2.63158" fill="#C4C4C4"/>
<ellipse cx="252.773" cy="31.2805" rx="2.85243" ry="2.63158" fill="#C4C4C4"/>
<ellipse cx="252.773" cy="41.3684" rx="2.85243" ry="2.63158" fill="#C4C4C4"/>
<ellipse cx="267.693" cy="41.3684" rx="2.85243" ry="2.63158" fill="#C4C4C4"/>
<ellipse cx="282.614" cy="41.3684" rx="2.85243" ry="2.63158" fill="#C4C4C4"/>
<ellipse cx="297.534" cy="41.3684" rx="2.85243" ry="2.63158" fill="#C4C4C4"/>
<ellipse cx="312.454" cy="41.3684" rx="2.85243" ry="2.63158" fill="#C4C4C4"/>
<ellipse cx="327.375" cy="41.3684" rx="2.85243" ry="2.63158" fill="#C4C4C4"/>
<ellipse cx="342.295" cy="41.3684" rx="2.85243" ry="2.63158" fill="#C4C4C4"/>
<ellipse cx="357.216" cy="41.3684" rx="2.85243" ry="2.63158" fill="#C4C4C4"/>
<ellipse cx="372.136" cy="41.3684" rx="2.85243" ry="2.63158" fill="#C4C4C4"/>
<ellipse cx="387.056" cy="41.3684" rx="2.85243" ry="2.63158" fill="#C4C4C4"/>
<ellipse cx="401.977" cy="41.3684" rx="2.85243" ry="2.63158" fill="#C4C4C4"/>
<ellipse cx="416.897" cy="41.3684" rx="2.85243" ry="2.63158" fill="#C4C4C4"/>
<ellipse cx="252.773" cy="21.6316" rx="2.85243" ry="2.63158" fill="#C4C4C4"/>
<ellipse cx="267.693" cy="31.2805" rx="2.85243" ry="2.63158" fill="#C4C4C4"/>
<ellipse cx="267.693" cy="21.6316" rx="2.85243" ry="2.63158" fill="#C4C4C4"/>
<ellipse cx="282.614" cy="31.2805" rx="2.85243" ry="2.63158" fill="#C4C4C4"/>
<ellipse cx="282.614" cy="21.6316" rx="2.85243" ry="2.63158" fill="#C4C4C4"/>
<ellipse cx="297.534" cy="21.6316" rx="2.85243" ry="2.63158" fill="#C4C4C4"/>
<ellipse cx="312.454" cy="21.6316" rx="2.85243" ry="2.63158" fill="#C4C4C4"/>
<ellipse cx="327.375" cy="21.6316" rx="2.85243" ry="2.63158" fill="#C4C4C4"/>
<ellipse cx="342.295" cy="21.6316" rx="2.85243" ry="2.63158" fill="#C4C4C4"/>
<ellipse cx="357.216" cy="21.6316" rx="2.85243" ry="2.63158" fill="#C4C4C4"/>
<ellipse cx="372.136" cy="21.6316" rx="2.85243" ry="2.63158" fill="#C4C4C4"/>
<ellipse cx="387.056" cy="21.6316" rx="2.85243" ry="2.63158" fill="#C4C4C4"/>
<ellipse cx="401.977" cy="21.6316" rx="2.85243" ry="2.63158" fill="#C4C4C4"/>
<ellipse cx="416.897" cy="21.6316" rx="2.85243" ry="2.63158" fill="#C4C4C4"/>
<ellipse cx="297.534" cy="31.2805" rx="2.85243" ry="2.63158" fill="#C4C4C4"/>
<ellipse cx="312.454" cy="31.2805" rx="2.85243" ry="2.63158" fill="#C4C4C4"/>
<ellipse cx="327.375" cy="31.2805" rx="2.85243" ry="2.63158" fill="#C4C4C4"/>
<ellipse cx="342.295" cy="31.2805" rx="2.85243" ry="2.63158" fill="#C4C4C4"/>
<ellipse cx="357.216" cy="31.2805" rx="2.85243" ry="2.63158" fill="#C4C4C4"/>
<ellipse cx="372.136" cy="31.2805" rx="2.85243" ry="2.63158" fill="#C4C4C4"/>
<ellipse cx="387.056" cy="31.2805" rx="2.85243" ry="2.63158" fill="#C4C4C4"/>
<ellipse cx="401.977" cy="31.2805" rx="2.85243" ry="2.63158" fill="#C4C4C4"/>
<ellipse cx="416.897" cy="31.2805" rx="2.85243" ry="2.63158" fill="#C4C4C4"/>
<ellipse cx="431.818" cy="31.2805" rx="2.85243" ry="2.63158" fill="#C4C4C4"/>
<path d="M129.217 85.52V111H125.122V100.185H112.592V111H108.497V85.52H112.592V96.265H125.122V85.52H129.217ZM141.641 111.385C140.241 111.385 138.97 111.093 137.826 110.51C136.706 109.927 135.82 109.063 135.166 107.92C134.513 106.753 134.186 105.318 134.186 103.615C134.186 101.935 134.525 100.5 135.201 99.31C135.901 98.0967 136.811 97.1633 137.931 96.51C139.075 95.8567 140.311 95.53 141.641 95.53C143.065 95.53 144.208 95.81 145.071 96.37C145.958 96.93 146.646 97.595 147.136 98.365L146.926 98.925L147.311 96.195H150.916V111H146.996V107.395L147.381 108.34C147.288 108.48 147.101 108.713 146.821 109.04C146.541 109.343 146.156 109.682 145.666 110.055C145.176 110.428 144.593 110.743 143.916 111C143.263 111.257 142.505 111.385 141.641 111.385ZM142.726 108.165C143.426 108.165 144.056 108.037 144.616 107.78C145.2 107.523 145.69 107.162 146.086 106.695C146.506 106.228 146.81 105.668 146.996 105.015V101.795C146.81 101.188 146.506 100.663 146.086 100.22C145.666 99.7533 145.153 99.3917 144.546 99.135C143.963 98.8783 143.31 98.75 142.586 98.75C141.793 98.75 141.058 98.9483 140.381 99.345C139.705 99.7417 139.156 100.29 138.736 100.99C138.34 101.69 138.141 102.495 138.141 103.405C138.141 104.292 138.351 105.097 138.771 105.82C139.191 106.543 139.751 107.115 140.451 107.535C141.151 107.955 141.91 108.165 142.726 108.165ZM162.664 111.385L154.159 96.195H158.814L164.169 107.325L161.754 107.22L166.584 96.195H170.959L162.839 111.385H162.664ZM180.831 111.385C179.081 111.385 177.588 111.047 176.351 110.37C175.114 109.693 174.169 108.76 173.516 107.57C172.863 106.357 172.536 104.992 172.536 103.475C172.536 101.982 172.909 100.64 173.656 99.45C174.403 98.26 175.406 97.315 176.666 96.615C177.949 95.8917 179.361 95.53 180.901 95.53C182.931 95.53 184.599 96.125 185.906 97.315C187.236 98.4817 188.123 100.138 188.566 102.285L176.631 106.31L175.721 104.105L185.031 100.78L184.226 101.235C183.969 100.535 183.549 99.9283 182.966 99.415C182.406 98.9017 181.613 98.645 180.586 98.645C179.769 98.645 179.046 98.8433 178.416 99.24C177.786 99.6133 177.284 100.15 176.911 100.85C176.561 101.527 176.386 102.332 176.386 103.265C176.386 104.222 176.584 105.062 176.981 105.785C177.378 106.508 177.914 107.068 178.591 107.465C179.268 107.838 180.038 108.025 180.901 108.025C181.508 108.025 182.091 107.92 182.651 107.71C183.211 107.5 183.736 107.22 184.226 106.87L186.011 109.775C185.241 110.265 184.389 110.662 183.456 110.965C182.546 111.245 181.671 111.385 180.831 111.385ZM209.864 111.385C208.464 111.385 207.192 111.093 206.049 110.51C204.929 109.927 204.042 109.063 203.389 107.92C202.736 106.753 202.409 105.318 202.409 103.615C202.409 101.935 202.747 100.5 203.424 99.31C204.124 98.0967 205.034 97.1633 206.154 96.51C207.297 95.8567 208.534 95.53 209.864 95.53C211.287 95.53 212.431 95.81 213.294 96.37C214.181 96.93 214.869 97.595 215.359 98.365L215.149 98.925L215.534 96.195H219.139V111H215.219V107.395L215.604 108.34C215.511 108.48 215.324 108.713 215.044 109.04C214.764 109.343 214.379 109.682 213.889 110.055C213.399 110.428 212.816 110.743 212.139 111C211.486 111.257 210.727 111.385 209.864 111.385ZM210.949 108.165C211.649 108.165 212.279 108.037 212.839 107.78C213.422 107.523 213.912 107.162 214.309 106.695C214.729 106.228 215.032 105.668 215.219 105.015V101.795C215.032 101.188 214.729 100.663 214.309 100.22C213.889 99.7533 213.376 99.3917 212.769 99.135C212.186 98.8783 211.532 98.75 210.809 98.75C210.016 98.75 209.281 98.9483 208.604 99.345C207.927 99.7417 207.379 100.29 206.959 100.99C206.562 101.69 206.364 102.495 206.364 103.405C206.364 104.292 206.574 105.097 206.994 105.82C207.414 106.543 207.974 107.115 208.674 107.535C209.374 107.955 210.132 108.165 210.949 108.165ZM228.087 96.195L228.437 99.38L228.297 98.96C228.81 97.9333 229.569 97.1167 230.572 96.51C231.599 95.88 232.812 95.565 234.212 95.565C235.612 95.565 236.767 95.9733 237.677 96.79C238.587 97.6067 239.054 98.68 239.077 100.01V111H235.157V101.41C235.134 100.663 234.924 100.068 234.527 99.625C234.13 99.1583 233.5 98.9133 232.637 98.89C231.844 98.89 231.132 99.135 230.502 99.625C229.872 100.092 229.37 100.745 228.997 101.585C228.647 102.402 228.472 103.347 228.472 104.42V111H224.552V96.195H228.087ZM255.69 96.195H259.61V111H255.69V96.195ZM255.515 90.91C255.515 90.3033 255.748 89.8017 256.215 89.405C256.705 89.0083 257.23 88.81 257.79 88.81C258.35 88.81 258.851 89.0083 259.295 89.405C259.761 89.8017 259.995 90.3033 259.995 90.91C259.995 91.5167 259.761 92.0183 259.295 92.415C258.851 92.7883 258.35 92.975 257.79 92.975C257.23 92.975 256.705 92.7767 256.215 92.38C255.748 91.9833 255.515 91.4933 255.515 90.91ZM268.522 96.195L268.872 99.38L268.732 98.96C269.245 97.9333 270.003 97.1167 271.007 96.51C272.033 95.88 273.247 95.565 274.647 95.565C276.047 95.565 277.202 95.9733 278.112 96.79C279.022 97.6067 279.488 98.68 279.512 100.01V111H275.592V101.41C275.568 100.663 275.358 100.068 274.962 99.625C274.565 99.1583 273.935 98.9133 273.072 98.89C272.278 98.89 271.567 99.135 270.937 99.625C270.307 100.092 269.805 100.745 269.432 101.585C269.082 102.402 268.907 103.347 268.907 104.42V111H264.987V96.195H268.522ZM286.208 111V99.625H283.688V96.16H286.208V90.35C286.208 88.2967 286.722 86.6867 287.748 85.52C288.798 84.33 290.315 83.735 292.298 83.735C292.858 83.735 293.477 83.8167 294.153 83.98C294.83 84.1433 295.425 84.4 295.938 84.75L294.293 87.585C294.083 87.3517 293.838 87.1883 293.558 87.095C293.278 87.0017 292.998 86.955 292.718 86.955C291.925 86.955 291.295 87.2233 290.828 87.76C290.362 88.2967 290.128 89.195 290.128 90.455V96.16H294.748V99.625H290.128V111H286.208ZM296.882 103.44C296.882 101.947 297.232 100.605 297.932 99.415C298.632 98.2017 299.612 97.2567 300.872 96.58C302.155 95.88 303.602 95.53 305.212 95.53C306.868 95.53 308.303 95.88 309.517 96.58C310.753 97.2567 311.71 98.2017 312.387 99.415C313.063 100.605 313.402 101.947 313.402 103.44C313.402 104.933 313.063 106.287 312.387 107.5C311.71 108.69 310.753 109.635 309.517 110.335C308.303 111.035 306.857 111.385 305.177 111.385C303.59 111.385 302.167 111.07 300.907 110.44C299.647 109.787 298.655 108.865 297.932 107.675C297.232 106.485 296.882 105.073 296.882 103.44ZM300.837 103.475C300.837 104.338 301.023 105.132 301.397 105.855C301.77 106.555 302.283 107.115 302.937 107.535C303.59 107.955 304.313 108.165 305.107 108.165C305.97 108.165 306.717 107.955 307.347 107.535C308 107.115 308.502 106.555 308.852 105.855C309.225 105.132 309.412 104.338 309.412 103.475C309.412 102.588 309.225 101.795 308.852 101.095C308.502 100.372 308 99.8 307.347 99.38C306.717 98.96 305.97 98.75 305.107 98.75C304.29 98.75 303.555 98.9717 302.902 99.415C302.272 99.835 301.77 100.395 301.397 101.095C301.023 101.795 300.837 102.588 300.837 103.475ZM321.056 96.195L321.406 100.395L321.266 99.8C321.686 98.9133 322.257 98.155 322.981 97.525C323.727 96.8717 324.486 96.3817 325.256 96.055C326.026 95.705 326.656 95.53 327.146 95.53L326.971 99.45C325.851 99.3567 324.871 99.5667 324.031 100.08C323.214 100.57 322.572 101.223 322.106 102.04C321.662 102.857 321.441 103.72 321.441 104.63V111H317.521V96.195H321.056ZM334.693 96.195L335.043 99.205L334.903 98.96C335.463 97.8867 336.222 97.0467 337.178 96.44C338.158 95.8333 339.29 95.53 340.573 95.53C341.39 95.53 342.113 95.6583 342.743 95.915C343.373 96.1717 343.898 96.5333 344.318 97C344.762 97.4667 345.053 98.05 345.193 98.75L344.983 98.82C345.59 97.8167 346.372 97.0233 347.328 96.44C348.285 95.8333 349.3 95.53 350.373 95.53C351.82 95.53 352.975 95.95 353.838 96.79C354.702 97.6067 355.145 98.6683 355.168 99.975V111H351.283V101.515C351.26 100.792 351.108 100.197 350.828 99.73C350.548 99.24 350.023 98.9717 349.253 98.925C348.413 98.925 347.69 99.1933 347.083 99.73C346.477 100.243 345.998 100.92 345.648 101.76C345.322 102.577 345.158 103.452 345.158 104.385V111H341.203V101.515C341.18 100.792 341.017 100.197 340.713 99.73C340.41 99.24 339.873 98.9717 339.103 98.925C338.287 98.925 337.575 99.1933 336.968 99.73C336.362 100.243 335.895 100.92 335.568 101.76C335.242 102.577 335.078 103.44 335.078 104.35V111H331.158V96.195H334.693ZM366.783 111.385C365.383 111.385 364.111 111.093 362.968 110.51C361.848 109.927 360.961 109.063 360.308 107.92C359.655 106.753 359.328 105.318 359.328 103.615C359.328 101.935 359.666 100.5 360.343 99.31C361.043 98.0967 361.953 97.1633 363.073 96.51C364.216 95.8567 365.453 95.53 366.783 95.53C368.206 95.53 369.35 95.81 370.213 96.37C371.1 96.93 371.788 97.595 372.278 98.365L372.068 98.925L372.453 96.195H376.058V111H372.138V107.395L372.523 108.34C372.43 108.48 372.243 108.713 371.963 109.04C371.683 109.343 371.298 109.682 370.808 110.055C370.318 110.428 369.735 110.743 369.058 111C368.405 111.257 367.646 111.385 366.783 111.385ZM367.868 108.165C368.568 108.165 369.198 108.037 369.758 107.78C370.341 107.523 370.831 107.162 371.228 106.695C371.648 106.228 371.951 105.668 372.138 105.015V101.795C371.951 101.188 371.648 100.663 371.228 100.22C370.808 99.7533 370.295 99.3917 369.688 99.135C369.105 98.8783 368.451 98.75 367.728 98.75C366.935 98.75 366.2 98.9483 365.523 99.345C364.846 99.7417 364.298 100.29 363.878 100.99C363.481 101.69 363.283 102.495 363.283 103.405C363.283 104.292 363.493 105.097 363.913 105.82C364.333 106.543 364.893 107.115 365.593 107.535C366.293 107.955 367.051 108.165 367.868 108.165ZM382.871 89.685H386.826V96.195H390.676V99.275H386.826V111H382.871V99.275H380.351V96.195H382.871V89.685ZM394.528 96.195H398.448V111H394.528V96.195ZM394.353 90.91C394.353 90.3033 394.586 89.8017 395.053 89.405C395.543 89.0083 396.068 88.81 396.628 88.81C397.188 88.81 397.689 89.0083 398.133 89.405C398.599 89.8017 398.833 90.3033 398.833 90.91C398.833 91.5167 398.599 92.0183 398.133 92.415C397.689 92.7883 397.188 92.975 396.628 92.975C396.068 92.975 395.543 92.7767 395.053 92.38C394.586 91.9833 394.353 91.4933 394.353 90.91ZM402.599 103.44C402.599 101.947 402.949 100.605 403.649 99.415C404.349 98.2017 405.329 97.2567 406.589 96.58C407.873 95.88 409.319 95.53 410.929 95.53C412.586 95.53 414.021 95.88 415.234 96.58C416.471 97.2567 417.428 98.2017 418.104 99.415C418.781 100.605 419.119 101.947 419.119 103.44C419.119 104.933 418.781 106.287 418.104 107.5C417.428 108.69 416.471 109.635 415.234 110.335C414.021 111.035 412.574 111.385 410.894 111.385C409.308 111.385 407.884 111.07 406.624 110.44C405.364 109.787 404.373 108.865 403.649 107.675C402.949 106.485 402.599 105.073 402.599 103.44ZM406.554 103.475C406.554 104.338 406.741 105.132 407.114 105.855C407.488 106.555 408.001 107.115 408.654 107.535C409.308 107.955 410.031 108.165 410.824 108.165C411.688 108.165 412.434 107.955 413.064 107.535C413.718 107.115 414.219 106.555 414.569 105.855C414.943 105.132 415.129 104.338 415.129 103.475C415.129 102.588 414.943 101.795 414.569 101.095C414.219 100.372 413.718 99.8 413.064 99.38C412.434 98.96 411.688 98.75 410.824 98.75C410.008 98.75 409.273 98.9717 408.619 99.415C407.989 99.835 407.488 100.395 407.114 101.095C406.741 101.795 406.554 102.588 406.554 103.475ZM426.773 96.195L427.123 99.38L426.983 98.96C427.497 97.9333 428.255 97.1167 429.258 96.51C430.285 95.88 431.498 95.565 432.898 95.565C434.298 95.565 435.453 95.9733 436.363 96.79C437.273 97.6067 437.74 98.68 437.763 100.01V111H433.843V101.41C433.82 100.663 433.61 100.068 433.213 99.625C432.817 99.1583 432.187 98.9133 431.323 98.89C430.53 98.89 429.818 99.135 429.188 99.625C428.558 100.092 428.057 100.745 427.683 101.585C427.333 102.402 427.158 103.347 427.158 104.42V111H423.238V96.195H426.773ZM460.606 111.385C459.206 111.385 457.934 111.093 456.791 110.51C455.671 109.927 454.784 109.063 454.131 107.92C453.478 106.753 453.151 105.318 453.151 103.615C453.151 101.935 453.489 100.5 454.166 99.31C454.866 98.0967 455.776 97.1633 456.896 96.51C458.039 95.8567 459.276 95.53 460.606 95.53C462.029 95.53 463.173 95.81 464.036 96.37C464.923 96.93 465.611 97.595 466.101 98.365L465.891 98.925L466.276 96.195H469.881V111H465.961V107.395L466.346 108.34C466.253 108.48 466.066 108.713 465.786 109.04C465.506 109.343 465.121 109.682 464.631 110.055C464.141 110.428 463.558 110.743 462.881 111C462.228 111.257 461.469 111.385 460.606 111.385ZM461.691 108.165C462.391 108.165 463.021 108.037 463.581 107.78C464.164 107.523 464.654 107.162 465.051 106.695C465.471 106.228 465.774 105.668 465.961 105.015V101.795C465.774 101.188 465.471 100.663 465.051 100.22C464.631 99.7533 464.118 99.3917 463.511 99.135C462.928 98.8783 462.274 98.75 461.551 98.75C460.758 98.75 460.023 98.9483 459.346 99.345C458.669 99.7417 458.121 100.29 457.701 100.99C457.304 101.69 457.106 102.495 457.106 103.405C457.106 104.292 457.316 105.097 457.736 105.82C458.156 106.543 458.716 107.115 459.416 107.535C460.116 107.955 460.874 108.165 461.691 108.165ZM478.829 96.195L479.179 99.38L479.039 98.96C479.552 97.9333 480.311 97.1167 481.314 96.51C482.341 95.88 483.554 95.565 484.954 95.565C486.354 95.565 487.509 95.9733 488.419 96.79C489.329 97.6067 489.796 98.68 489.819 100.01V111H485.899V101.41C485.876 100.663 485.666 100.068 485.269 99.625C484.872 99.1583 484.242 98.9133 483.379 98.89C482.586 98.89 481.874 99.135 481.244 99.625C480.614 100.092 480.112 100.745 479.739 101.585C479.389 102.402 479.214 103.347 479.214 104.42V111H475.294V96.195H478.829ZM501.276 111.385C499.876 111.385 498.628 111.058 497.531 110.405C496.434 109.752 495.571 108.818 494.941 107.605C494.311 106.392 493.996 104.98 493.996 103.37C493.996 101.713 494.334 100.302 495.011 99.135C495.688 97.9683 496.609 97.0817 497.776 96.475C498.966 95.845 500.296 95.53 501.766 95.53C502.839 95.53 503.866 95.74 504.846 96.16C505.826 96.5567 506.608 97.14 507.191 97.91L507.121 99.24V83.7H511.006V111H507.086V107.675L507.471 108.62C506.724 109.413 505.826 110.078 504.776 110.615C503.749 111.128 502.583 111.385 501.276 111.385ZM502.536 108.06C503.306 108.06 503.983 107.932 504.566 107.675C505.173 107.418 505.686 107.057 506.106 106.59C506.549 106.1 506.876 105.528 507.086 104.875V101.725C506.899 101.118 506.584 100.582 506.141 100.115C505.721 99.6483 505.196 99.2867 504.566 99.03C503.936 98.7733 503.259 98.645 502.536 98.645C501.696 98.645 500.926 98.8433 500.226 99.24C499.549 99.6367 499.001 100.185 498.581 100.885C498.161 101.585 497.951 102.39 497.951 103.3C497.951 104.187 498.161 104.992 498.581 105.715C499.001 106.438 499.561 107.01 500.261 107.43C500.961 107.85 501.719 108.06 502.536 108.06ZM537.598 96.195L541.483 105.19L540.748 105.26L544.283 96.195H548.133L541.378 111.875L536.618 101.865L532.278 111.875L525.453 96.195H529.303L533.468 105.715L532.103 105.47L535.218 98.4L534.203 96.195H537.598ZM557.027 111.385C555.627 111.385 554.355 111.093 553.212 110.51C552.092 109.927 551.205 109.063 550.552 107.92C549.899 106.753 549.572 105.318 549.572 103.615C549.572 101.935 549.91 100.5 550.587 99.31C551.287 98.0967 552.197 97.1633 553.317 96.51C554.46 95.8567 555.697 95.53 557.027 95.53C558.45 95.53 559.594 95.81 560.457 96.37C561.344 96.93 562.032 97.595 562.522 98.365L562.312 98.925L562.697 96.195H566.302V111H562.382V107.395L562.767 108.34C562.674 108.48 562.487 108.713 562.207 109.04C561.927 109.343 561.542 109.682 561.052 110.055C560.562 110.428 559.979 110.743 559.302 111C558.649 111.257 557.89 111.385 557.027 111.385ZM558.112 108.165C558.812 108.165 559.442 108.037 560.002 107.78C560.585 107.523 561.075 107.162 561.472 106.695C561.892 106.228 562.195 105.668 562.382 105.015V101.795C562.195 101.188 561.892 100.663 561.472 100.22C561.052 99.7533 560.539 99.3917 559.932 99.135C559.349 98.8783 558.695 98.75 557.972 98.75C557.179 98.75 556.444 98.9483 555.767 99.345C555.09 99.7417 554.542 100.29 554.122 100.99C553.725 101.69 553.527 102.495 553.527 103.405C553.527 104.292 553.737 105.097 554.157 105.82C554.577 106.543 555.137 107.115 555.837 107.535C556.537 107.955 557.295 108.165 558.112 108.165ZM575.25 96.195L575.6 99.38L575.46 98.96C575.973 97.9333 576.732 97.1167 577.735 96.51C578.762 95.88 579.975 95.565 581.375 95.565C582.775 95.565 583.93 95.9733 584.84 96.79C585.75 97.6067 586.217 98.68 586.24 100.01V111H582.32V101.41C582.297 100.663 582.087 100.068 581.69 99.625C581.293 99.1583 580.663 98.9133 579.8 98.89C579.007 98.89 578.295 99.135 577.665 99.625C577.035 100.092 576.533 100.745 576.16 101.585C575.81 102.402 575.635 103.347 575.635 104.42V111H571.715V96.195H575.25ZM593.042 89.685H596.997V96.195H600.847V99.275H596.997V111H593.042V99.275H590.522V96.195H593.042V89.685ZM251.638 147.685H255.593V154.195H259.443V157.275H255.593V169H251.638V157.275H249.118V154.195H251.638V147.685ZM262.07 161.44C262.07 159.947 262.42 158.605 263.12 157.415C263.82 156.202 264.8 155.257 266.06 154.58C267.343 153.88 268.79 153.53 270.4 153.53C272.056 153.53 273.491 153.88 274.705 154.58C275.941 155.257 276.898 156.202 277.575 157.415C278.251 158.605 278.59 159.947 278.59 161.44C278.59 162.933 278.251 164.287 277.575 165.5C276.898 166.69 275.941 167.635 274.705 168.335C273.491 169.035 272.045 169.385 270.365 169.385C268.778 169.385 267.355 169.07 266.095 168.44C264.835 167.787 263.843 166.865 263.12 165.675C262.42 164.485 262.07 163.073 262.07 161.44ZM266.025 161.475C266.025 162.338 266.211 163.132 266.585 163.855C266.958 164.555 267.471 165.115 268.125 165.535C268.778 165.955 269.501 166.165 270.295 166.165C271.158 166.165 271.905 165.955 272.535 165.535C273.188 165.115 273.69 164.555 274.04 163.855C274.413 163.132 274.6 162.338 274.6 161.475C274.6 160.588 274.413 159.795 274.04 159.095C273.69 158.372 273.188 157.8 272.535 157.38C271.905 156.96 271.158 156.75 270.295 156.75C269.478 156.75 268.743 156.972 268.09 157.415C267.46 157.835 266.958 158.395 266.585 159.095C266.211 159.795 266.025 160.588 266.025 161.475ZM297.455 154.195L297.805 158.395L297.665 157.8C298.085 156.913 298.656 156.155 299.38 155.525C300.126 154.872 300.885 154.382 301.655 154.055C302.425 153.705 303.055 153.53 303.545 153.53L303.37 157.45C302.25 157.357 301.27 157.567 300.43 158.08C299.613 158.57 298.971 159.223 298.505 160.04C298.061 160.857 297.84 161.72 297.84 162.63V169H293.92V154.195H297.455ZM313.978 169.385C312.228 169.385 310.735 169.047 309.498 168.37C308.261 167.693 307.316 166.76 306.663 165.57C306.01 164.357 305.683 162.992 305.683 161.475C305.683 159.982 306.056 158.64 306.803 157.45C307.55 156.26 308.553 155.315 309.813 154.615C311.096 153.892 312.508 153.53 314.048 153.53C316.078 153.53 317.746 154.125 319.053 155.315C320.383 156.482 321.27 158.138 321.713 160.285L309.778 164.31L308.868 162.105L318.178 158.78L317.373 159.235C317.116 158.535 316.696 157.928 316.113 157.415C315.553 156.902 314.76 156.645 313.733 156.645C312.916 156.645 312.193 156.843 311.563 157.24C310.933 157.613 310.431 158.15 310.058 158.85C309.708 159.527 309.533 160.332 309.533 161.265C309.533 162.222 309.731 163.062 310.128 163.785C310.525 164.508 311.061 165.068 311.738 165.465C312.415 165.838 313.185 166.025 314.048 166.025C314.655 166.025 315.238 165.92 315.798 165.71C316.358 165.5 316.883 165.22 317.373 164.87L319.158 167.775C318.388 168.265 317.536 168.662 316.603 168.965C315.693 169.245 314.818 169.385 313.978 169.385ZM331.8 169.385C330.4 169.385 329.128 169.093 327.985 168.51C326.865 167.927 325.978 167.063 325.325 165.92C324.672 164.753 324.345 163.318 324.345 161.615C324.345 159.935 324.683 158.5 325.36 157.31C326.06 156.097 326.97 155.163 328.09 154.51C329.233 153.857 330.47 153.53 331.8 153.53C333.223 153.53 334.367 153.81 335.23 154.37C336.117 154.93 336.805 155.595 337.295 156.365L337.085 156.925L337.47 154.195H341.075V169H337.155V165.395L337.54 166.34C337.447 166.48 337.26 166.713 336.98 167.04C336.7 167.343 336.315 167.682 335.825 168.055C335.335 168.428 334.752 168.743 334.075 169C333.422 169.257 332.663 169.385 331.8 169.385ZM332.885 166.165C333.585 166.165 334.215 166.037 334.775 165.78C335.358 165.523 335.848 165.162 336.245 164.695C336.665 164.228 336.968 163.668 337.155 163.015V159.795C336.968 159.188 336.665 158.663 336.245 158.22C335.825 157.753 335.312 157.392 334.705 157.135C334.122 156.878 333.468 156.75 332.745 156.75C331.952 156.75 331.217 156.948 330.54 157.345C329.863 157.742 329.315 158.29 328.895 158.99C328.498 159.69 328.3 160.495 328.3 161.405C328.3 162.292 328.51 163.097 328.93 163.82C329.35 164.543 329.91 165.115 330.61 165.535C331.31 165.955 332.068 166.165 332.885 166.165ZM358.738 167.635C358.085 168.172 357.28 168.603 356.323 168.93C355.39 169.233 354.445 169.385 353.488 169.385C351.855 169.385 350.42 169.07 349.183 168.44C347.946 167.787 346.978 166.888 346.278 165.745C345.601 164.578 345.263 163.19 345.263 161.58C345.263 159.97 345.625 158.582 346.348 157.415C347.095 156.248 348.063 155.362 349.253 154.755C350.466 154.125 351.75 153.81 353.103 153.81C354.34 153.81 355.436 153.985 356.393 154.335C357.35 154.662 358.178 155.117 358.878 155.7L356.918 158.255C356.545 157.952 356.055 157.672 355.448 157.415C354.865 157.135 354.2 156.995 353.453 156.995C352.66 156.995 351.936 157.193 351.283 157.59C350.653 157.987 350.14 158.535 349.743 159.235C349.37 159.912 349.183 160.693 349.183 161.58C349.183 162.42 349.381 163.19 349.778 163.89C350.175 164.59 350.723 165.15 351.423 165.57C352.123 165.967 352.928 166.165 353.838 166.165C354.421 166.165 354.958 166.083 355.448 165.92C355.961 165.733 356.405 165.488 356.778 165.185L358.738 167.635ZM362.758 169V141.7H366.608V157.45L366.538 156.855C367.051 155.898 367.809 155.117 368.812 154.51C369.816 153.88 371.018 153.565 372.418 153.565C373.818 153.565 374.973 153.973 375.883 154.79C376.793 155.607 377.259 156.68 377.283 158.01V169H373.363V159.41C373.339 158.663 373.129 158.068 372.733 157.625C372.336 157.158 371.706 156.913 370.843 156.89C370.049 156.89 369.338 157.135 368.708 157.625C368.078 158.115 367.576 158.78 367.203 159.62C366.853 160.437 366.678 161.37 366.678 162.42V169H362.758ZM392.67 161.44C392.67 159.947 393.02 158.605 393.72 157.415C394.42 156.202 395.4 155.257 396.66 154.58C397.944 153.88 399.39 153.53 401 153.53C402.657 153.53 404.092 153.88 405.305 154.58C406.542 155.257 407.499 156.202 408.175 157.415C408.852 158.605 409.19 159.947 409.19 161.44C409.19 162.933 408.852 164.287 408.175 165.5C407.499 166.69 406.542 167.635 405.305 168.335C404.092 169.035 402.645 169.385 400.965 169.385C399.379 169.385 397.955 169.07 396.695 168.44C395.435 167.787 394.444 166.865 393.72 165.675C393.02 164.485 392.67 163.073 392.67 161.44ZM396.625 161.475C396.625 162.338 396.812 163.132 397.185 163.855C397.559 164.555 398.072 165.115 398.725 165.535C399.379 165.955 400.102 166.165 400.895 166.165C401.759 166.165 402.505 165.955 403.135 165.535C403.789 165.115 404.29 164.555 404.64 163.855C405.014 163.132 405.2 162.338 405.2 161.475C405.2 160.588 405.014 159.795 404.64 159.095C404.29 158.372 403.789 157.8 403.135 157.38C402.505 156.96 401.759 156.75 400.895 156.75C400.079 156.75 399.344 156.972 398.69 157.415C398.06 157.835 397.559 158.395 397.185 159.095C396.812 159.795 396.625 160.588 396.625 161.475ZM418.069 169.63C416.716 169.63 415.596 169.222 414.709 168.405C413.823 167.565 413.356 166.492 413.309 165.185V154.195H417.229V163.785C417.276 164.508 417.486 165.103 417.859 165.57C418.233 166.037 418.828 166.27 419.644 166.27C420.414 166.27 421.103 166.037 421.709 165.57C422.316 165.08 422.783 164.415 423.109 163.575C423.459 162.735 423.634 161.79 423.634 160.74V154.195H427.554V169H424.019L423.704 165.745L423.809 166.27C423.506 166.9 423.074 167.483 422.514 168.02C421.954 168.533 421.289 168.93 420.519 169.21C419.773 169.49 418.956 169.63 418.069 169.63ZM434.363 147.685H438.318V154.195H442.168V157.275H438.318V169H434.363V157.275H431.843V154.195H434.363V147.685ZM448.819 162.35V160.285C448.819 159.142 448.971 158.208 449.274 157.485C449.578 156.762 449.963 156.143 450.429 155.63C450.896 155.117 451.374 154.638 451.864 154.195C452.564 153.612 453.171 153.005 453.684 152.375C454.198 151.745 454.454 150.917 454.454 149.89C454.454 149.237 454.291 148.665 453.964 148.175C453.638 147.685 453.229 147.312 452.739 147.055C452.249 146.775 451.736 146.635 451.199 146.635C450.453 146.635 449.811 146.798 449.274 147.125C448.738 147.428 448.294 147.848 447.944 148.385C447.594 148.898 447.303 149.458 447.069 150.065L443.814 148.595C443.978 148.105 444.246 147.545 444.619 146.915C444.993 146.285 445.483 145.667 446.089 145.06C446.719 144.453 447.489 143.952 448.399 143.555C449.309 143.158 450.371 142.96 451.584 142.96C452.914 142.96 454.104 143.205 455.154 143.695C456.204 144.185 457.044 144.92 457.674 145.9C458.304 146.857 458.619 148.07 458.619 149.54C458.619 150.73 458.444 151.71 458.094 152.48C457.768 153.25 457.348 153.915 456.834 154.475C456.344 155.035 455.819 155.572 455.259 156.085C454.816 156.505 454.396 156.937 453.999 157.38C453.603 157.8 453.288 158.313 453.054 158.92C452.844 159.503 452.739 160.262 452.739 161.195V162.35H448.819ZM450.779 169.105C450.079 169.105 449.508 168.918 449.064 168.545C448.621 168.148 448.399 167.635 448.399 167.005C448.399 166.398 448.621 165.885 449.064 165.465C449.531 165.045 450.103 164.835 450.779 164.835C451.479 164.835 452.051 165.045 452.494 165.465C452.938 165.885 453.159 166.398 453.159 167.005C453.159 167.635 452.938 168.148 452.494 168.545C452.074 168.918 451.503 169.105 450.779 169.105Z" fill="white"/>
</svg>
